<?xml version="1.0" encoding="UTF-8"?>
<svg version="1.1" xmlns="http://www.w3.org/2000/svg" width="512" height="512" style="background-color:transparent">
<path d="M0 0 C4.98996351 3.72802293 8.2868508 7.95359108 10 14 C11.4467543 25.89955415 6.89651817 32.9532788 0.06591797 42.21191406 C-8.12075811 53.47568202 -14.60416579 66.19264638 -20 79 C-20.73476563 80.72089844 -20.73476563 80.72089844 -21.484375 82.4765625 C-27.99515169 98.38643403 -32.11338669 115.92247432 -34 133 C-34.10957031 133.86753906 -34.21914062 134.73507813 -34.33203125 135.62890625 C-39.85551305 187.40234233 -24.30938899 240.34891422 8 281 C8.64710938 281.85078125 9.29421875 282.7015625 9.9609375 283.578125 C20.49320982 297.05620528 33.00352943 309.17851576 47 319 C47.53141602 319.38639648 48.06283203 319.77279297 48.61035156 320.17089844 C64.01363292 331.35585378 81.51808436 340.63224113 99.51879883 346.82104492 C103.55162433 348.2383241 106.39852375 349.54010212 109 353 C109.57750587 357.54785873 109.52383446 359.85708845 107.625 364 C103.6166345 367.05399276 99.88972887 366.58247028 95 366 C91.03221596 364.87216616 87.32851119 363.29799697 83.5625 361.625 C81.99532227 360.94715454 81.99532227 360.94715454 80.39648438 360.25561523 C64.57098995 353.30363273 49.90193165 345.28296969 36 335 C35.40912598 334.56606934 34.81825195 334.13213867 34.20947266 333.68505859 C26.9469448 328.30443402 20.17388753 322.47352888 13.5625 316.3125 C12.58700195 315.40419434 12.58700195 315.40419434 11.59179688 314.47753906 C7.10144414 310.22024163 2.99183239 305.72535153 -1 301 C-1.49363037 300.41790771 -1.98726074 299.83581543 -2.49584961 299.23608398 C-10.02600968 290.25429573 -16.66308611 280.871023 -22.82177734 270.90283203 C-23.84064282 269.25736218 -24.88125052 267.62539219 -25.92578125 265.99609375 C-37.53151207 247.24016555 -44.82091988 225.12559742 -49.8125 203.75 C-50.0074707 202.92443604 -50.20244141 202.09887207 -50.40332031 201.24829102 C-53.68427995 186.3523292 -54.37831357 171.44752523 -54.3125 156.25 C-54.31067719 155.37225922 -54.30885437 154.49451843 -54.30697632 153.59017944 C-54.26131162 140.51207839 -53.77610318 127.82269707 -51 115 C-50.82307617 114.14535156 -50.64615234 113.29070312 -50.46386719 112.41015625 C-44.29406558 83.04232683 -33.10565319 55.70816571 -16 31 C-14.63240526 28.9882298 -13.2776627 26.96764745 -11.9375 24.9375 C-11.34839844 24.05964844 -10.75929687 23.18179688 -10.15234375 22.27734375 C-9.77207031 21.52582031 -9.39179688 20.77429688 -9 20 C-9.33 19.01 -9.66 18.02 -10 17 C-16.00168171 17.48298494 -20.35915941 19.33722326 -25.625 22.1875 C-26.44331299 22.62602295 -27.26162598 23.0645459 -28.10473633 23.51635742 C-52.84426066 37.07473159 -76.97775442 55.118777 -95 77 C-95.80308594 77.90363281 -96.60617188 78.80726562 -97.43359375 79.73828125 C-109.27316999 93.13107982 -118.63262596 108.24941636 -127 124 C-127.3398291 124.6305127 -127.6796582 125.26102539 -128.02978516 125.91064453 C-157.7049137 181.30137945 -162.22839 247.91086179 -144.18896484 307.6875 C-135.7215426 334.92094839 -122.73187933 360.62954 -105 383 C-104.03513672 384.25296875 -104.03513672 384.25296875 -103.05078125 385.53125 C-97.7279524 392.35483587 -91.95065622 398.7263936 -86 405 C-85.52546387 405.50321777 -85.05092773 406.00643555 -84.56201172 406.52490234 C-76.97273882 414.52051381 -68.84444713 421.43164377 -60 428 C-59.42491699 428.43054688 -58.84983398 428.86109375 -58.25732422 429.3046875 C-49.51896649 435.81591087 -40.45452162 441.58920452 -31 447 C-29.31583984 447.98419922 -29.31583984 447.98419922 -27.59765625 448.98828125 C-1.24997115 463.77736434 28.18040794 472.06246032 58 476 C58.75531006 476.103125 59.51062012 476.20625 60.28881836 476.3125 C68.71701531 477.31575014 77.21181176 477.24277381 85.6875 477.25 C86.50780701 477.25100708 87.32811401 477.25201416 88.17327881 477.25305176 C101.65160075 477.24189013 114.72232826 476.46239511 128 474 C128.83611816 473.85014648 129.67223633 473.70029297 130.53369141 473.54589844 C141.62642254 471.5188659 152.34732463 468.68449627 163 465 C164.12124268 464.61521484 164.12124268 464.61521484 165.26513672 464.22265625 C191.9253928 454.98411777 216.10023732 441.86832003 238 424 C238.56976563 423.54447754 239.13953125 423.08895508 239.7265625 422.61962891 C253.5721203 411.54236243 266.17326282 399.0083459 276.70996094 384.734375 C278.01458755 382.98038797 279.35120384 381.25511043 280.6953125 379.53125 C288.54537197 369.32575283 294.91419263 358.33061122 301 347 C301.48243164 346.11393066 301.96486328 345.22786133 302.46191406 344.31494141 C302.92049805 343.44401855 303.37908203 342.5730957 303.8515625 341.67578125 C304.26486816 340.89759033 304.67817383 340.11939941 305.10400391 339.31762695 C306.10597883 336.72587002 306.16755811 334.75496005 306 332 C302.31991267 331.38783847 300.36341039 332.20281428 297.42578125 334.2734375 C296.04859559 335.29916269 294.67786439 336.33359105 293.3125 337.375 C284.61366427 343.75383069 275.58329565 349.06677071 266 354 C265.36384766 354.32838867 264.72769531 354.65677734 264.07226562 354.99511719 C234.51912777 370.0229349 200.96262198 377.2122738 167.9375 377.25 C167.24345062 377.25133942 166.54940125 377.25267883 165.83432007 377.25405884 C156.09589658 377.25001343 146.49520228 376.8267267 136.8125 375.6875 C135.27420532 375.51105957 135.27420532 375.51105957 133.70483398 375.33105469 C128.13139159 374.59026571 123.29665571 373.92301636 119.625 369.25 C118.68302198 365.85887913 119.15247801 363.39008797 120 360 C122.18997646 356.79926517 123.42981377 356.11527231 127.24609375 355.34375 C130.93346796 355.00609242 133.8030561 355.24999551 137.4375 355.875 C170.28453465 360.80415808 203.78739858 357.06512304 235 346 C235.64066406 345.77618652 236.28132813 345.55237305 236.94140625 345.32177734 C256.11337114 338.50880999 273.34392189 327.92654445 289.95141602 316.33764648 C296.16029218 312.28348935 301.68474428 312.30789796 309 313 C315.98393443 314.88419556 320.44744975 319.81097154 324.12109375 325.83984375 C326.84168007 332.52644034 325.97985181 339.95347328 323.375 346.51171875 C313.11000607 369.68754738 297.9665434 391.2710325 281 410 C280.41895508 410.64275879 279.83791016 411.28551758 279.23925781 411.94775391 C267.13788251 425.26962639 267.13788251 425.26962639 261.13671875 430.2265625 C259.4367461 431.63750872 257.78206074 433.10297646 256.14453125 434.5859375 C241.70163812 447.58497752 225.14897266 457.94890815 208 467 C207.37383789 467.33692871 206.74767578 467.67385742 206.10253906 468.02099609 C146.57415707 499.91882085 74.3490171 505.02504792 10.0703125 485.91015625 C-26.45322734 474.6316779 -59.38533065 455.92142368 -87.62109375 430.16015625 C-89.78271952 428.19730067 -91.97526262 426.2803374 -94.1875 424.375 C-100.65920396 418.70578733 -106.22854681 412.65437389 -111.6171875 405.94140625 C-113.19886019 403.98894799 -114.80833127 402.05866854 -116.4453125 400.15234375 C-145.32758121 366.51672361 -164.1655721 322.65829612 -171 279 C-171.15936035 278.00613281 -171.3187207 277.01226562 -171.48291016 275.98828125 C-178.46058558 230.62979798 -172.80225777 184.94768089 -157 142 C-156.72075684 141.23042969 -156.44151367 140.46085938 -156.15380859 139.66796875 C-147.20237224 115.35948105 -132.88430904 93.30516752 -117 73 C-116.37134033 72.19127441 -116.37134033 72.19127441 -115.72998047 71.36621094 C-103.00212347 55.17087848 -87.83845348 39.89745724 -71 28 C-70.2972998 27.49597656 -69.59459961 26.99195312 -68.87060547 26.47265625 C-18.70731949 -9.35365975 -18.70731949 -9.35365975 0 0 Z " fill="#FFFFFF" transform="translate(187,9)"/>
<path d="M0 0 C3.3834434 1.24956716 5.27706079 3.7504251 7.0625 6.76171875 C7.75726465 9.46513765 8.23117955 11.83870954 8.5625 14.57421875 C9.99036334 23.80049374 12.87594131 30.4734799 20.0625 36.76171875 C20.805 37.44234375 21.5475 38.12296875 22.3125 38.82421875 C28.17824994 42.95690621 33.62621347 44.83006806 40.75 45.69921875 C46.4512857 46.48030824 49.52252646 47.10918209 53.0625 51.76171875 C53.83904079 54.62448854 54.01851561 56.94173976 53.0625 59.76171875 C49.4235142 64.37834253 46.61029802 65.45342804 40.875 66.26171875 C29.70400337 68.10652049 20.65873335 72.5653052 13.875 81.88671875 C9.29314457 89.10044936 7.98550703 97.33909033 6.6875 105.66796875 C5.94261983 108.16331733 5.11547587 109.18063544 3.0625 110.76171875 C-0.44316912 111.60567613 -3.13401406 111.9078071 -6.6875 111.26171875 C-9.96208733 109.07866053 -10.95236146 106.43359875 -11.9375 102.76171875 C-12.22651008 100.84770857 -12.49580225 98.93066255 -12.75 97.01171875 C-14.25032364 87.18582867 -19.18535012 78.97022391 -26.9375 72.76171875 C-34.02913476 67.73913556 -41.72774847 66.53799172 -50.16796875 65.51953125 C-53.49924552 64.60801123 -54.81177123 63.45071666 -56.9375 60.76171875 C-58.00185104 56.85909826 -58.33489585 54.70291946 -56.75 50.94921875 C-53.52309892 47.05468296 -50.13281333 46.51222948 -45.25 45.88671875 C-35.53027797 44.35140421 -26.57392967 40.41564544 -20.2109375 32.65625 C-15.47712701 25.88200395 -13.15936863 19.73093278 -12.0625 11.57421875 C-11.45576304 7.70382411 -10.99707115 5.85282757 -8.8125 2.51171875 C-5.62729997 0.57290134 -3.64981316 0.13981139 0 0 Z M-2.9375 40.76171875 C-3.36160156 41.35339844 -3.78570312 41.94507813 -4.22265625 42.5546875 C-8.02696192 47.68004877 -11.54120741 51.34773772 -16.9375 54.76171875 C-15.5211449 58.09818411 -13.85578002 59.91716168 -11.0625 62.19921875 C-7.93448022 64.82856871 -5.4700627 67.54731225 -2.9375 70.76171875 C-2.2775 70.76171875 -1.6175 70.76171875 -0.9375 70.76171875 C2.69883539 67.28173368 2.69883539 67.28173368 4.0625 62.76171875 C4.619375 62.53484375 5.17625 62.30796875 5.75 62.07421875 C8.6903734 60.40535817 10.7127353 58.1738321 13.0625 55.76171875 C12.24265625 55.0140625 11.4228125 54.26640625 10.578125 53.49609375 C9.48953861 52.50135102 8.40099945 51.50655662 7.3125 50.51171875 C6.77367187 50.02058594 6.23484375 49.52945313 5.6796875 49.0234375 C2.7381284 46.33298711 -0.1448768 43.60856765 -2.9375 40.76171875 Z " fill="#FFFFFF" transform="translate(299.9375,99.23828125)"/>
<path d="M0 0 C8.60773667 4.57089666 12.84403282 10.02930213 16.0625 19.3125 C17.56894261 27.66823498 16.02632 34.35570457 11.90234375 41.7109375 C9.15964503 45.58914842 6.17830219 48.00343775 2.0625 50.3125 C1.010625 50.93125 -0.04125 51.55 -1.125 52.1875 C-9.13452024 54.55096499 -17.46123974 54.49568429 -24.94140625 50.5703125 C-32.45787601 45.8339069 -36.13930126 40.70709622 -38.9375 32.3125 C-39.80445404 22.0511751 -38.50594083 14.66563527 -32.1875 6.5 C-24.32124954 -2.12685483 -10.64029887 -4.49539032 0 0 Z M-17.9375 19.3125 C-20.2860228 22.20901146 -20.95151228 23.62589817 -20.875 27.375 C-19.78923536 30.77706252 -18.78409713 32.17755215 -15.9375 34.3125 C-12.63956173 35.61431774 -11.2124115 35.40047168 -7.8125 34.3125 C-4.06064609 31.70251467 -3.05835587 29.72119976 -1.9375 25.3125 C-3.16398326 21.89125721 -4.37893194 19.87106806 -6.9375 17.3125 C-11.69541766 15.93799045 -14.06980187 16.17652855 -17.9375 19.3125 Z " fill="#FFFFFF" transform="translate(386.9375,223.6875)"/>
<path d="M0 0 C4.98734919 4.55240594 8.41828359 10.56659537 9.05078125 17.37890625 C9.2763947 26.48656482 7.90797158 33.8483304 1.5625 40.6875 C-5.26095302 46.81704254 -12.03554389 48.90401956 -21.1875 48.8125 C-29.59975695 48.17479665 -35.45689621 44.04687377 -41 37.875 C-46.5599384 30.09108624 -47.27948668 23.32232572 -46.1875 13.8125 C-43.95300293 5.94318422 -38.80661294 0.43681178 -32.1875 -4.1875 C-21.09008345 -9.18050804 -9.45730282 -7.64595937 0 0 Z M-25.0625 14 C-27.2519789 16.89783973 -28.1875 18.20753935 -28.1875 21.8125 C-26.64391562 25.74864016 -25.73910136 27.44476576 -22.1875 29.8125 C-17.76753796 30.38545804 -15.90676364 30.35976581 -12.3125 27.625 C-10.1230211 24.72716027 -9.1875 23.41746065 -9.1875 19.8125 C-10.73108438 15.87635984 -11.63589864 14.18023424 -15.1875 11.8125 C-19.60746204 11.23954196 -21.46823636 11.26523419 -25.0625 14 Z " fill="#FFFFFF" transform="translate(59.1875,443.1875)"/>
<path d="M0 0 C3.58552881 1.63687185 4.79315055 2.68972583 7 6 C7.67960333 10.66239494 7.60851629 14.73005297 5.5625 19 C1.95785726 21.8133797 -1.4384451 22.82577394 -6 23 C-10.32788137 21.55737288 -12.60785591 19.83426524 -15 16 C-15.66367922 12.59864398 -15.6069482 9.40994532 -15 6 C-10.68304603 0.43340146 -6.89762916 -0.75463505 0 0 Z " fill="#FFFFFF" transform="translate(15,381)"/>
<path d="M0 0 C2.98426157 3.23295003 4.06153014 6.04533293 4.25 10.4375 C3.1443647 14.40477959 2.1481411 16.6420036 -0.9375 19.375 C-4.62105796 20.76656634 -7.90701212 21.26314193 -11.75 20.4375 C-14.76784991 18.68142354 -17.16468217 16.60813565 -18.75 13.4375 C-19.2864289 8.96139655 -19.33328477 5.49189939 -17.125 1.5 C-11.66016759 -3.24577551 -6.21948425 -3.53379787 0 0 Z " fill="#FFFFFF" transform="translate(375.75,81.5625)"/>
<path d="M0 0 C3.03522895 1.63435405 5.28352297 3.055553 7.375 5.8125 C8.72789093 10.54761825 8.5517493 13.91693656 6.3125 18.3125 C3.81094957 21.21970726 2.72680887 22.23769819 -1 23 C-5.49394251 23.14614447 -8.25503194 22.53891307 -11.9375 19.875 C-14.46207408 16.35589673 -15 14.32569596 -15 10 C-13.77556297 5.67845753 -12.91027612 3.6270791 -9.1875 1.0625 C-5.74157556 -0.08614148 -3.59607027 -0.52442691 0 0 Z " fill="#FFFFFF" transform="translate(301,249)"/>
</svg>
