<?xml version="1.0" encoding="UTF-8"?>
<svg version="1.1" xmlns="http://www.w3.org/2000/svg" width="512" height="512">
<path d="M0 0 C2.53537463 2.23709527 5.00332587 4.52913128 7.45703125 6.85546875 C8.89369141 8.19544922 8.89369141 8.19544922 10.359375 9.5625 C38.45485473 36.29367997 55.60399403 75.83580418 56.73828125 114.49609375 C57.45863828 150.55253574 49.51042811 184.97839852 28.45703125 214.85546875 C28.04791504 215.438125 27.63879883 216.02078125 27.21728516 216.62109375 C15.9295377 232.39995206 1.73685577 246.30587748 -14.54296875 256.85546875 C-15.20232422 257.28408203 -15.86167969 257.71269531 -16.54101562 258.15429688 C-42.76860565 274.9309536 -72.41886698 283.3282081 -103.54296875 283.23046875 C-104.26185272 283.22926025 -104.98073669 283.22805176 -105.72140503 283.22680664 C-132.77572576 283.10416049 -158.95267808 276.27707471 -182.54296875 262.85546875 C-183.66703125 262.21867187 -184.79109375 261.581875 -185.94921875 260.92578125 C-206.53250585 248.72283247 -224.54696852 232.00314466 -237.54296875 211.85546875 C-238.18371338 210.86861084 -238.18371338 210.86861084 -238.83740234 209.86181641 C-255.54766724 183.74152525 -264.02885219 154.18227995 -263.85546875 123.16796875 C-263.8533136 122.46925659 -263.85115845 121.77054443 -263.84893799 121.05065918 C-263.71904653 94.70746929 -258.17792781 65.74441144 -242.54296875 43.85546875 C-239.0828174 42.12539307 -235.3262432 42.37194145 -231.54296875 42.85546875 C-228.04406871 44.96938752 -226.83718189 45.97282934 -225.54296875 49.85546875 C-225.10451486 55.40921798 -226.10564796 58.70267313 -228.66796875 63.60546875 C-244.45466636 95.4812139 -246.044342 133.01308582 -235.14672852 166.67529297 C-227.97812391 187.54613049 -216.90660077 205.11365502 -201.54296875 220.85546875 C-200.89070313 221.56960938 -200.2384375 222.28375 -199.56640625 223.01953125 C-177.93648249 246.12213067 -142.73051694 260.0210129 -111.53515625 261.17578125 C-96.45440925 261.50737454 -82.14202118 260.76148322 -67.54296875 256.85546875 C-66.87346191 256.67886719 -66.20395508 256.50226563 -65.51416016 256.3203125 C-42.4743655 249.99359543 -22.51159866 237.41644389 -5.54296875 220.85546875 C-4.82882812 220.20320313 -4.1146875 219.5509375 -3.37890625 218.87890625 C18.51204905 198.38339033 33.0817658 164.14479439 34.62988281 134.55126953 C35.91834286 94.6577312 25.36189252 57.7406908 -2.34765625 28.1484375 C-3.07210938 27.39175781 -3.7965625 26.63507813 -4.54296875 25.85546875 C-5.22617187 25.10910156 -5.909375 24.36273438 -6.61328125 23.59375 C-28.74604289 0.1950924 -63.74125306 -14.29458117 -95.5625 -15.46875 C-118.87696364 -15.97162854 -139.71272455 -12.78772428 -161.04296875 -3.26953125 C-165.62799702 -1.32474074 -168.6740856 -0.35596193 -173.54296875 -2.14453125 C-177.05335526 -4.73916476 -178.3210869 -6.38181239 -179.54296875 -10.58203125 C-179.54296875 -14.7884744 -178.79220145 -16.60936428 -176.54296875 -20.14453125 C-162.60749989 -29.28500007 -143.81710053 -33.54141926 -127.54296875 -36.14453125 C-126.39828125 -36.32886719 -125.25359375 -36.51320313 -124.07421875 -36.703125 C-79.38631704 -42.03012419 -34.3898123 -29.00154678 0 0 Z " fill="#000000" transform="translate(359.54296875,133.14453125)"/>
<path d="M0 0 C7.68448606 5.72955281 9.32751989 19.85362054 11 28.8125 C15.49590166 62.26729765 6.45579995 90.47567603 -12.50390625 117.61328125 C-15.39674453 120.72060754 -18.47414589 122.61631849 -22.75390625 123.03515625 C-25.86568411 122.58791692 -28.31303108 121.97142799 -30.99609375 120.3203125 C-33.31329449 116.61279131 -33.86425625 113.1683615 -33.55859375 108.8203125 C-32.05859375 105.8828125 -32.05859375 105.8828125 -29.55859375 102.8203125 C-14.02674029 82.22622532 -8.26922506 60.50403373 -10.55859375 34.8203125 C-11.52101128 28.05266125 -13.09051744 21.42611397 -15.671875 15.0859375 C-16.93703159 11.85337881 -16.86564532 9.25929006 -16.55859375 5.8203125 C-15.30403403 2.99755314 -14.27474653 1.35742709 -11.80859375 -0.4921875 C-7.62710576 -1.76986439 -3.99328749 -1.84117988 0 0 Z " fill="#000000" transform="translate(354.55859375,209.1796875)"/>
<path d="M0 0 C3.65059689 1.11229124 5.38297463 3.73913568 7.5 6.76171875 C8.7134862 9.17854293 9.779179 11.49406661 10.77734375 13.9921875 C11.06561035 14.68841721 11.35387695 15.38464691 11.65087891 16.10197449 C12.59067772 18.38007909 13.51455822 20.66423838 14.4375 22.94921875 C15.08925375 24.54340616 15.74168939 26.13731494 16.39477539 27.73095703 C17.75184514 31.04916299 19.10125581 34.37035035 20.4453125 37.69384766 C22.14276603 41.88870292 23.86022501 46.07499687 25.58470154 50.25880432 C26.89775817 53.44972117 28.20092705 56.64460485 29.50125122 59.84072876 C30.1220545 61.36314262 30.74594492 62.8843015 31.37301636 64.40414429 C32.24719424 66.52715609 33.1076772 68.65522967 33.96484375 70.78515625 C34.455896 71.99091309 34.94694824 73.19666992 35.45288086 74.43896484 C36.98519703 79.3013624 37.15454165 82.40027213 34.9375 87.01171875 C31.87726055 90.46429659 30.06642716 91.21993926 25.5 91.76171875 C20.71275235 90.32554446 18.19955831 88.89931827 15.5 84.76171875 C14.69713234 83.07756488 13.95153936 81.36544488 13.25097656 79.63623047 C12.83334045 78.61351044 12.41570435 77.59079041 11.9854126 76.53707886 C11.54163269 75.4330069 11.09785278 74.32893494 10.640625 73.19140625 C10.17315857 72.04116974 9.70569214 70.89093323 9.22406006 69.70584106 C7.97964204 66.64022559 6.74049058 63.57258445 5.50366211 60.50390625 C4.27040017 57.44851678 3.02917424 54.39636435 1.7890625 51.34375 C-0.56847948 45.53526895 -2.90340245 39.71798675 -5.2331543 33.89831543 C-6.4010389 31.00673759 -7.59449648 28.12752018 -8.79882812 25.25097656 C-9.45459776 23.65306482 -10.11021022 22.05508857 -10.765625 20.45703125 C-11.06466736 19.76431122 -11.36370972 19.07159119 -11.67181396 18.35787964 C-13.52374708 13.77540026 -13.68410362 10.54996512 -12.5 5.76171875 C-9.08888692 0.59003118 -5.79942685 0.17217048 0 0 Z " fill="#000000" transform="translate(158.5,-0.76171875)"/>
<path d="M0 0 C4.66453513 4.56509852 6.58494786 10.72497494 8.95703125 16.66796875 C9.42308273 17.81679031 9.88913422 18.96561188 10.36930847 20.14924622 C11.60733211 23.20590361 12.83788168 26.26543076 14.06500244 29.32647705 C15.28986174 32.37597364 16.52550957 35.42109399 17.75976562 38.46679688 C19.65940592 43.15954475 21.54559998 47.85733834 23.42041016 52.56005859 C25.01361335 56.55607006 26.63394219 60.53785637 28.29443359 64.50634766 C28.95023934 66.10447412 29.60600452 67.70261723 30.26171875 69.30078125 C30.56100784 69.99374802 30.86029694 70.68671478 31.1686554 71.40068054 C33.02232226 75.98412868 33.19067369 79.21065108 32 84 C29.94258871 87.02182284 28.50050175 88.69011377 24.84375 89.4453125 C21.01238574 89.63688071 18.82651159 89.49082073 15.4609375 87.4921875 C12.19733919 84.18714667 10.83117478 80.83691681 9.125 76.5625 C8.75914795 75.67868652 8.3932959 74.79487305 8.01635742 73.88427734 C6.66163814 70.59583845 5.33134365 67.29797214 4 64 C3.09112117 61.76739631 2.18033363 59.53557631 1.26953125 57.30375671 C-1.95560955 49.39878543 -5.17563245 41.49156613 -8.35253906 33.56706238 C-9.80447113 29.94610789 -11.27384826 26.33517103 -12.79150391 22.74121094 C-13.07258499 22.06597382 -13.35366608 21.39073669 -13.64326477 20.69503784 C-14.40356237 18.87050039 -15.17370371 17.05007359 -15.94458008 15.22998047 C-17.52672479 10.38802475 -17.66097049 7.32194098 -15.375 2.75 C-10.73495486 -2.62268385 -6.35940672 -2.70863619 0 0 Z " fill="#000000" transform="translate(334,423)"/>
<path d="M0 0 C3.52900914 2.42619378 4.73058223 3.99068984 5.83325195 8.12158203 C6.04897995 13.1392321 4.65368993 16.45299921 2.66796875 20.9921875 C2.12489326 22.28828445 2.12489326 22.28828445 1.57084656 23.61056519 C0.79398705 25.46026413 0.00987501 27.30693094 -0.78082275 29.15075684 C-1.99425397 31.9865714 -3.18312681 34.83146205 -4.36474609 37.68066406 C-6.37515583 42.52282295 -8.40608087 47.35597832 -10.4465332 52.18554688 C-11.70057395 55.15596801 -12.94900715 58.12870759 -14.19726562 61.1015625 C-15.01007983 63.02878793 -15.82321896 64.95587636 -16.63671875 66.8828125 C-17.00141769 67.75277863 -17.36611664 68.62274475 -17.74186707 69.51907349 C-19.58471667 73.8667639 -21.49892837 78.1781502 -23.52270508 82.44482422 C-23.90098953 83.24685272 -24.27927399 84.04888123 -24.66902161 84.87521362 C-26.18938287 87.30233259 -27.54654125 88.53481539 -30 90 C-34.61995409 90.59612311 -37.61261258 90.73012864 -41.4375 87.9375 C-44.57752383 84.33796049 -44.83911168 82.7418772 -45 78 C-44.20840686 74.85948107 -42.96402987 71.97049706 -41.66796875 69.0078125 C-41.12489326 67.71171555 -41.12489326 67.71171555 -40.57084656 66.38943481 C-39.79398705 64.53973587 -39.00987501 62.69306906 -38.21917725 60.84924316 C-37.00574603 58.0134286 -35.81687319 55.16853795 -34.63525391 52.31933594 C-32.62484417 47.47717705 -30.59391913 42.64402168 -28.5534668 37.81445312 C-27.29942605 34.84403199 -26.05099285 31.87129241 -24.80273438 28.8984375 C-23.98992017 26.97121207 -23.17678104 25.04412364 -22.36328125 23.1171875 C-21.99858231 22.24722137 -21.63388336 21.37725525 -21.25813293 20.48092651 C-19.41528333 16.1332361 -17.50107163 11.8218498 -15.47729492 7.55517578 C-14.90986824 6.35213303 -14.90986824 6.35213303 -14.33097839 5.12478638 C-10.8398894 -0.44842079 -6.12449075 -1.14629506 0 0 Z " fill="#000000" transform="translate(187,421)"/>
<path d="M0 0 C0.98067444 0.41974594 1.96134888 0.83949188 2.97174072 1.2719574 C6.09372975 2.61020687 9.21096223 3.95914644 12.328125 5.30859375 C14.37338919 6.18756768 16.41896 7.0658285 18.46484375 7.94335938 C21.5081939 9.2489769 24.55026168 10.5571931 27.58850098 11.87466431 C32.58546527 14.04117356 37.59191485 16.17226432 42.63476562 18.22998047 C43.59642639 18.62724838 44.55808716 19.0245163 45.54888916 19.43382263 C47.35904875 20.18001785 49.17374453 20.91534009 50.99359131 21.6375885 C55.72400181 23.60176536 58.80615153 25.21709842 61.578125 29.74609375 C62.3487738 32.84994822 62.21832195 35.61875999 61.578125 38.74609375 C59.04194258 42.55036738 57.43450949 43.54249539 52.99316406 44.59838867 C47.71313835 45.1330187 43.68179212 43.23477469 38.9375 41.109375 C38.02469772 40.71841141 37.11189545 40.32744781 36.1714325 39.92463684 C33.21561056 38.65371811 30.27198995 37.35693879 27.328125 36.05859375 C25.30024582 35.17859494 23.27167724 34.30018314 21.24243164 33.42333984 C17.21612557 31.68147604 13.19403238 29.93035198 9.17431641 28.17333984 C4.31384075 26.05556043 -0.56988188 24.00194878 -5.47265625 21.984375 C-6.77779225 21.44324898 -8.08281073 20.90183942 -9.38769531 20.36010742 C-11.7206001 19.39429244 -14.05701525 18.43689696 -16.39746094 17.48950195 C-25.81596225 13.53388019 -25.81596225 13.53388019 -28.421875 8.74609375 C-28.9765759 4.86318746 -29.31729458 2.38828617 -27.43359375 -1.06640625 C-20.09931112 -10.51241732 -8.95208622 -3.89976425 0 0 Z " fill="#000000" transform="translate(29.421875,148.25390625)"/>
<path d="M0 0 C3.45257784 3.06023945 4.20822051 4.87107284 4.75 9.4375 C3.47074278 14.154761 1.94589203 16.73355233 -2.18310547 19.33666992 C-7.02398756 21.91492852 -12.20692208 23.76761834 -17.3125 25.75 C-19.9933701 26.80168918 -22.6724405 27.85792946 -25.3515625 28.9140625 C-26.05669479 29.19124619 -26.76182709 29.46842987 -27.48832703 29.75401306 C-33.08380917 31.95957791 -38.65031814 34.23157396 -44.2109375 36.5234375 C-45.88660369 37.21191467 -47.56230339 37.90031026 -49.23803711 38.58862305 C-51.70018737 39.60020791 -54.16124511 40.61408531 -56.61917114 41.63589478 C-58.91898906 42.59132267 -61.22269124 43.53677423 -63.52734375 44.48046875 C-64.20538055 44.76534149 -64.88341736 45.05021423 -65.58200073 45.34371948 C-71.04207068 47.56288344 -75.8994266 49.32450883 -81.5625 47.1875 C-84.25 45.4375 -84.25 45.4375 -86.25 42.4375 C-86.65625 40.1328125 -86.65625 40.1328125 -86.75 37.5625 C-86.8015625 36.71945312 -86.853125 35.87640625 -86.90625 35.0078125 C-85.94336715 31.23652134 -83.34056639 29.5540336 -80.25 27.4375 C-77.49105919 25.97933056 -74.64607472 24.80972161 -71.75 23.65234375 C-70.51833855 23.14501709 -70.51833855 23.14501709 -69.26179504 22.62744141 C-66.59548709 21.53244095 -63.92312845 20.45323092 -61.25 19.375 C-59.40555003 18.62319581 -57.56139516 17.87066727 -55.7175293 17.11743164 C-52.00484914 15.60311551 -48.28943762 14.09579622 -44.57177734 12.59375 C-40.45582371 10.92946544 -36.34819702 9.24619689 -32.24539185 7.54978943 C-29.49149444 6.41233878 -26.73399236 5.2838567 -23.9753418 4.1579895 C-22.71037854 3.64019814 -21.44667753 3.1193112 -20.18432617 2.59518433 C-18.44602337 1.87502281 -16.70165073 1.16956504 -14.95703125 0.46484375 C-13.9925708 0.07031006 -13.02811035 -0.32422363 -12.03442383 -0.73071289 C-7.44185137 -2.10264576 -4.32475824 -2.07921069 0 0 Z " fill="#000000" transform="translate(86.25,318.5625)"/>
<path d="M0 0 C0.6949054 0.29096558 1.38981079 0.58193115 2.10577393 0.88171387 C4.38145803 1.83721568 6.65179154 2.80471248 8.921875 3.7734375 C10.50956999 4.44561202 12.09746377 5.11731718 13.68554688 5.78857422 C16.99599959 7.18935117 20.30413127 8.59546201 23.61132812 10.00390625 C27.80352507 11.78570126 32.00710068 13.53851159 36.21600342 15.28042603 C39.43419412 16.61413968 42.64740775 17.95956092 45.85974121 19.30731201 C47.39306796 19.94801285 48.92829929 20.58417575 50.4654541 21.21563721 C52.61296273 22.09935689 54.75230311 23.0005702 56.890625 23.90625 C58.10685547 24.4130127 59.32308594 24.91977539 60.57617188 25.44189453 C63.94863394 27.30100414 65.62010545 28.90975035 67.671875 32.1484375 C68.33775572 36.80960251 68.41158948 39.72593345 65.609375 43.5859375 C62.00983549 46.72596133 60.4137522 46.98754918 55.671875 47.1484375 C52.53135607 46.35684436 49.64237206 45.11246737 46.6796875 43.81640625 C45.38359055 43.27333076 45.38359055 43.27333076 44.06130981 42.71928406 C42.21161087 41.94242455 40.36494406 41.15831251 38.52111816 40.36761475 C35.6853036 39.15418353 32.84041295 37.96531069 29.99121094 36.78369141 C25.14905205 34.77328167 20.31589668 32.74235663 15.48632812 30.7019043 C12.51590699 29.44786355 9.54316741 28.19943035 6.5703125 26.95117188 C4.64308707 26.13835767 2.71599864 25.32521854 0.7890625 24.51171875 C-0.08090363 24.14701981 -0.95086975 23.78232086 -1.84719849 23.40657043 C-6.1948889 21.56372083 -10.5062752 19.64950913 -14.77294922 17.62573242 C-15.57497772 17.24744797 -16.37700623 16.86916351 -17.20333862 16.47941589 C-19.59681515 14.98012845 -20.83281527 13.52926259 -22.328125 11.1484375 C-22.98894573 8.07011428 -22.92821072 5.23695209 -22.328125 2.1484375 C-15.88411277 -6.21136215 -8.65235257 -3.7207103 0 0 Z " fill="#000000" transform="translate(443.328125,322.8515625)"/>
<path d="M0 0 C2.79628419 1.36198325 3.85849718 2.54510652 6 5 C7.75128844 11.29518526 6.16986596 15.27306507 3.66796875 20.9921875 C3.12489326 22.28828445 3.12489326 22.28828445 2.57084656 23.61056519 C1.79398705 25.46026413 1.00987501 27.30693094 0.21917725 29.15075684 C-0.99425397 31.9865714 -2.18312681 34.83146205 -3.36474609 37.68066406 C-5.37515583 42.52282295 -7.40608087 47.35597832 -9.4465332 52.18554688 C-10.70057395 55.15596801 -11.94900715 58.12870759 -13.19726562 61.1015625 C-14.01007983 63.02878793 -14.82321896 64.95587636 -15.63671875 66.8828125 C-16.00141769 67.75277863 -16.36611664 68.62274475 -16.74186707 69.51907349 C-18.58471667 73.8667639 -20.49892837 78.1781502 -22.52270508 82.44482422 C-22.90098953 83.24685272 -23.27927399 84.04888123 -23.66902161 84.87521362 C-25.16830905 87.26869015 -26.61917491 88.50469027 -29 90 C-32.08255576 90.66172932 -34.90407549 90.57393253 -38 90 C-41.80427363 87.46381758 -42.79640164 85.85638449 -43.85229492 81.41503906 C-44.38692495 76.13501335 -42.48868094 72.10366712 -40.36328125 67.359375 C-39.97231766 66.44657272 -39.58135406 65.53377045 -39.17854309 64.5933075 C-37.90762436 61.63748556 -36.61084504 58.69386495 -35.3125 55.75 C-34.43250119 53.72212082 -33.55408939 51.69355224 -32.67724609 49.66430664 C-30.93538229 45.63800057 -29.18425823 41.61590738 -27.42724609 37.59619141 C-25.30946668 32.73571575 -23.25585503 27.85199312 -21.23828125 22.94921875 C-20.69715523 21.64408275 -20.15574567 20.33906427 -19.61401367 19.03417969 C-18.64819869 16.7012749 -17.69080321 14.36485975 -16.7434082 12.02441406 C-13.39209855 4.04480523 -9.80171761 -2.18241369 0 0 Z " fill="#000000" transform="translate(363,1)"/>
<path d="M0 0 C0.7734375 0.14824219 1.546875 0.29648438 2.34375 0.44921875 C5.13311592 1.56597576 6.03321483 2.70792821 7.5 5.3125 C8.00390625 7.71484375 8.00390625 7.71484375 8.0625 10.25 C8.12630859 11.50103516 8.12630859 11.50103516 8.19140625 12.77734375 C7.17877847 16.49031227 4.54086134 18.18780864 1.5 20.3125 C-0.91682418 21.5259862 -3.23234786 22.591679 -5.73046875 23.58984375 C-6.42669846 23.87811035 -7.12292816 24.16637695 -7.84025574 24.46337891 C-10.11836034 25.40317772 -12.40251963 26.32705822 -14.6875 27.25 C-16.28168741 27.90175375 -17.87559619 28.55418939 -19.46923828 29.20727539 C-22.78744424 30.56434514 -26.1086316 31.91375581 -29.43212891 33.2578125 C-33.62698417 34.95526603 -37.81327812 36.67272501 -41.99708557 38.39720154 C-45.18800242 39.71025817 -48.3828861 41.01342705 -51.57901001 42.31375122 C-53.10142387 42.9345545 -54.62258275 43.55844492 -56.14242554 44.18551636 C-58.26543734 45.05969424 -60.39351092 45.9201772 -62.5234375 46.77734375 C-63.72919434 47.268396 -64.93495117 47.75944824 -66.17724609 48.26538086 C-71.01191405 49.78895844 -74.13487598 49.94255724 -78.75 47.8125 C-81.82566126 45.01644431 -82.71134119 43.34227051 -83.44921875 39.33984375 C-83.53289172 35.99936138 -82.37836179 34.00481856 -80.5 31.3125 C-77.1461783 28.33121536 -73.26224407 26.82306059 -69.140625 25.1953125 C-68.41098541 24.9015271 -67.68134583 24.6077417 -66.92959595 24.30505371 C-64.53856731 23.34369119 -62.14432954 22.39060802 -59.75 21.4375 C-58.09366554 20.7732398 -56.43758072 20.10835681 -54.78173828 19.44287109 C-51.37850803 18.07553155 -47.97423423 16.71083626 -44.56933594 15.34765625 C-39.71954713 13.40356887 -34.87779341 11.44017787 -30.0390625 9.46875 C-29.29974487 9.1675827 -28.56042725 8.86641541 -27.79870605 8.55612183 C-24.96297202 7.40056376 -22.12747946 6.24441442 -19.29211426 5.08795166 C-17.35916244 4.2999415 -15.42572884 3.51312482 -13.4921875 2.7265625 C-12.40276855 2.2826416 -11.31334961 1.8387207 -10.19091797 1.38134766 C-6.3032993 -0.16283621 -4.08846737 -0.85176404 0 0 Z " fill="#000000" transform="translate(504.5,145.6875)"/>
<path d="M0 0 C3.8363132 0.22869229 4.87494611 0.59307155 8.0625 3 C10.44975547 6.31135435 11.12248123 8.71362485 11.16113281 12.6965332 C11.17074036 13.49779129 11.1803479 14.29904938 11.19024658 15.12458801 C11.19449646 15.98710678 11.19874634 16.84962555 11.203125 17.73828125 C11.20882507 18.62984421 11.21452515 19.52140717 11.22039795 20.43998718 C11.22984349 22.32708552 11.23638016 24.21420032 11.24023438 26.10131836 C11.24992807 28.97864821 11.28095055 31.85526001 11.3125 34.73242188 C11.31903157 36.5677041 11.32428144 38.40299143 11.328125 40.23828125 C11.3404718 41.09472733 11.3528186 41.9511734 11.36553955 42.83357239 C11.34697018 47.84988825 10.86047605 51.37893907 8 55.6875 C4.03870946 58.12521726 1.94059379 58.81503814 -2.6875 58.1875 C-6.58348923 56.42327846 -7.79899366 55.34565541 -10 51.6875 C-10.59560979 48.31333719 -10.5844564 44.98616737 -10.56640625 41.56640625 C-10.57260483 40.58888901 -10.57880341 39.61137177 -10.58518982 38.60423279 C-10.59228089 36.54077142 -10.58912645 34.47725276 -10.57641602 32.41381836 C-10.56256041 29.26373502 -10.59662015 26.11662902 -10.63476562 22.96679688 C-10.63571698 20.95833261 -10.63385714 18.94986464 -10.62890625 16.94140625 C-10.64216446 16.00373917 -10.65542267 15.06607208 -10.66908264 14.09999084 C-10.60655115 9.6877397 -10.42682877 6.6209179 -7.61694336 3.09423828 C-4.78662648 0.49126564 -3.77487212 -0.11206652 0 0 Z " fill="#000000" transform="translate(256,20.3125)"/>
<path d="M0 0 C2.8100346 1.79363911 4.50940468 3.01880935 6 6 C6.52617601 12.31411213 5.97819597 14.82386096 2 20 C-0.27883355 22.35977862 -2.68685133 24.55655324 -5.125 26.75 C-6.46623174 27.97634829 -7.80606996 29.20422233 -9.14453125 30.43359375 C-9.7988916 31.03413574 -10.45325195 31.63467773 -11.12744141 32.25341797 C-14.57261095 35.4668134 -17.85783872 38.83225316 -21.14453125 42.20703125 C-24.4575668 45.40846981 -27.29426659 45.38799989 -31.73828125 45.359375 C-35.32520929 44.78943134 -36.86838894 42.79773951 -39 40 C-40.43304064 37.13391871 -40.30644155 35.18699217 -40 32 C-37.3640197 27.52835743 -34.16636714 23.87055948 -30.5 20.234375 C-29.98244141 19.71490295 -29.46488281 19.19543091 -28.93164062 18.66021729 C-27.8449028 17.57212759 -26.75567182 16.48652269 -25.6640625 15.40332031 C-23.99762178 13.74763713 -22.34218221 12.08148811 -20.6875 10.4140625 C-19.62564103 9.35352445 -18.56316219 8.2936066 -17.5 7.234375 C-17.00822266 6.73854919 -16.51644531 6.24272339 -16.00976562 5.73187256 C-11.10012946 0.88847415 -7.03720579 -1.17286763 0 0 Z " fill="#000000" transform="translate(125,379)"/>
<path d="M0 0 C4.392333 2.59923779 7.907803 5.65108206 11.51171875 9.24609375 C12.00662308 9.73908463 12.5015274 10.2320755 13.01142883 10.74000549 C14.04824378 11.77546896 15.08257574 12.81342419 16.11450195 13.85375977 C17.68678587 15.436781 19.26949532 17.00881042 20.85351562 18.58007812 C21.86522537 19.5931092 22.87631469 20.60676037 23.88671875 21.62109375 C24.79639404 22.5330249 25.70606934 23.44495605 26.64331055 24.38452148 C30.64099769 28.82119634 32.57633034 32.13467101 32.36328125 38.06640625 C31.78568163 41.14072683 30.19864432 42.86602169 28 45 C24.83350487 46.58324757 21.42541806 46.64374236 18 46 C12.58646315 43.03347216 8.80421596 38.85090262 4.6875 34.3125 C3.36711231 32.87777616 2.04550207 31.44417646 0.72265625 30.01171875 C0.08730957 29.32255371 -0.54803711 28.63338867 -1.20263672 27.92333984 C-4.19613855 24.72002452 -7.31407831 21.65413378 -10.4609375 18.6015625 C-13.49056614 15.44890325 -13.38640793 12.45858141 -13.359375 8.26171875 C-12.78943134 4.67479071 -10.79773951 3.13161106 -8 1 C-5.13391871 -0.43304064 -3.18699217 -0.30644155 0 0 Z " fill="#000000" transform="translate(101,85)"/>
<path d="M0 0 C4.67626996 2.63902098 8.11012217 6.00796245 11.625 10 C16.34228851 15.24568487 21.20574604 20.28929077 26.25439453 25.21679688 C29.72796333 28.6304968 31.16253827 30.45039496 31.375 35.3125 C31.35031361 39.14506165 31.13918768 39.82418398 28.625 43 C24.81003479 45.90664016 22.81326348 46.4628138 18 46 C13.52835743 43.3640197 9.87055948 40.16636714 6.234375 36.5 C5.71490295 35.98244141 5.19543091 35.46488281 4.66021729 34.93164062 C3.57212759 33.8449028 2.48652269 32.75567182 1.40332031 31.6640625 C-0.25236287 29.99762178 -1.91851189 28.34218221 -3.5859375 26.6875 C-4.64647555 25.62564103 -5.7063934 24.56316219 -6.765625 23.5 C-7.26145081 23.00822266 -7.75727661 22.51644531 -8.26812744 22.00976562 C-12.19172696 18.03250741 -13.8443161 15.63468097 -14.375 10.0625 C-14.28301495 5.95383449 -12.97941228 3.89178251 -10 1 C-6.83350487 -0.58324757 -3.42541806 -0.64374236 0 0 Z " fill="#000000" transform="translate(393,381)"/>
<path d="M0 0 C2.75569447 2.18159145 4.43588747 3.87177494 6 7 C6.61179571 12.38380227 5.15408996 14.71547359 2 19 C0.19873822 20.98098105 -1.60265397 22.8838985 -3.5 24.765625 C-4.01755859 25.28509705 -4.53511719 25.80456909 -5.06835938 26.33978271 C-6.1550972 27.42787241 -7.24432818 28.51347731 -8.3359375 29.59667969 C-10.00237822 31.25236287 -11.65781779 32.91851189 -13.3125 34.5859375 C-14.37435897 35.64647555 -15.43683781 36.7063934 -16.5 37.765625 C-16.99177734 38.26145081 -17.48355469 38.75727661 -17.99023438 39.26812744 C-21.96749259 43.19172696 -24.36531903 44.8443161 -29.9375 45.375 C-34.04616551 45.28301495 -36.10821749 43.97941228 -39 41 C-40.58324757 37.83350487 -40.64374236 34.42541806 -40 31 C-37.36097902 26.32373004 -33.99203755 22.88987783 -30 19.375 C-24.75431513 14.65771149 -19.71070923 9.79425396 -14.78320312 4.74560547 C-10.10466739 -0.01498162 -6.63174619 -1.05374896 0 0 Z " fill="#000000" transform="translate(421,88)"/>
<path d="M0 0 C0.88873306 -0.00524185 1.77746613 -0.0104837 2.69313049 -0.0158844 C4.56827757 -0.02229307 6.4434649 -0.02098258 8.31860352 -0.01245117 C11.17862972 -0.00394425 14.03665545 -0.03271279 16.89648438 -0.06445312 C18.72265565 -0.06606546 20.54883045 -0.06548699 22.375 -0.0625 C23.22517197 -0.07373398 24.07534393 -0.08496796 24.95127869 -0.09654236 C30.33770885 -0.03371456 33.52942057 0.77335842 37.75390625 4.43359375 C39.76926686 8.70615825 39.99225544 10.63909645 38.62890625 15.18359375 C36.03070001 19.68715124 36.03070001 19.68715124 32.75390625 21.43359375 C29.54810893 21.8905087 26.36678574 21.87768665 23.1328125 21.8671875 C22.19590073 21.87242935 21.25898895 21.8776712 20.29368591 21.8830719 C18.31420888 21.88948904 16.3346937 21.88815909 14.35522461 21.87963867 C11.33052461 21.87113345 8.30771635 21.89988656 5.28320312 21.93164062 C3.35807348 21.9332529 1.4329405 21.9326746 -0.4921875 21.9296875 C-1.39440536 21.94092148 -2.29662323 21.95215546 -3.22618103 21.96372986 C-7.35844454 21.91799557 -9.66155858 21.78711615 -13.26196289 19.60961914 C-15.98499117 16.62323412 -16.70378784 14.43309985 -17.24609375 10.43359375 C-16.17054328 6.63753327 -15.27822375 4.2802388 -12.20288086 1.75756836 C-8.09169384 -0.08331738 -4.45743221 -0.01535493 0 0 Z " fill="#000000" transform="translate(452.24609375,246.56640625)"/>
<path d="M0 0 C0.93691177 -0.00524185 1.87382355 -0.0104837 2.83912659 -0.0158844 C4.81860362 -0.02230154 6.7981188 -0.02097159 8.77758789 -0.01245117 C11.80228789 -0.00394595 14.82509615 -0.03269906 17.84960938 -0.06445312 C19.77473902 -0.0660654 21.699872 -0.0654871 23.625 -0.0625 C24.52721786 -0.07373398 25.42943573 -0.08496796 26.35899353 -0.09654236 C30.49125704 -0.05080807 32.79437108 0.08007135 36.39477539 2.25756836 C39.11780367 5.24395338 39.83660034 7.43408765 40.37890625 11.43359375 C39.30335578 15.22965423 38.41103625 17.5869487 35.33569336 20.10961914 C31.22450634 21.95050488 27.59024471 21.88254243 23.1328125 21.8671875 C22.24407944 21.87242935 21.35534637 21.8776712 20.43968201 21.8830719 C18.56453493 21.88948057 16.6893476 21.88817008 14.81420898 21.87963867 C11.95418278 21.87113175 9.09615705 21.89990029 6.23632812 21.93164062 C4.41015685 21.93325296 2.58398205 21.93267449 0.7578125 21.9296875 C-0.51744545 21.94653847 -0.51744545 21.94653847 -1.81846619 21.96372986 C-7.20489635 21.90090206 -10.39660807 21.09382908 -14.62109375 17.43359375 C-16.63645436 13.16102925 -16.85944294 11.22809105 -15.49609375 6.68359375 C-11.52500302 -0.19963017 -7.39441286 -0.0240061 0 0 Z " fill="#000000" transform="translate(36.62109375,243.56640625)"/>
<path d="M0 0 C3.80623636 0.94422813 5.13949401 2.53302637 7.53515625 5.62890625 C8.27217645 8.93012019 8.23640103 12.15944633 8.19921875 15.53125 C8.20400238 16.4865712 8.20878601 17.4418924 8.2137146 18.42616272 C8.21711056 20.44257253 8.20792941 22.45903763 8.18701172 24.4753418 C8.16027118 27.55317739 8.18675449 30.62735652 8.21875 33.70507812 C8.21544527 35.66797676 8.20903773 37.63087314 8.19921875 39.59375 C8.2093399 40.5095433 8.21946106 41.42533661 8.22988892 42.36888123 C8.15035191 46.7306856 7.92500455 49.72590697 5.14990234 53.20849609 C2.32118726 55.82697241 1.31807368 56.42871161 -2.46484375 56.31640625 C-6.30115695 56.08771396 -7.33978986 55.7233347 -10.52734375 53.31640625 C-13.77635082 48.80971903 -13.62513375 44.80097813 -13.6328125 39.453125 C-13.6361409 38.65034622 -13.6394693 37.84756744 -13.64289856 37.02046204 C-13.64795998 35.32167127 -13.65030713 33.62287057 -13.65014648 31.92407227 C-13.65232675 29.33658246 -13.67047333 26.74952341 -13.68945312 24.16210938 C-13.69238853 22.50911604 -13.69437234 20.85612068 -13.6953125 19.203125 C-13.70249802 18.43417404 -13.70968353 17.66522308 -13.71708679 16.87297058 C-13.69409896 11.41386926 -12.94119168 6.96645713 -9.96484375 2.25390625 C-6.60842067 0.07223125 -3.9332428 0.10334641 0 0 Z " fill="#000000" transform="translate(258.46484375,435.37109375)"/>
<path d="M0 0 C2.62195076 1.68073767 3.66412668 2.88508717 4.5625 5.8671875 C5.20088469 9.39160295 5.22399123 11.46949447 3.8125 14.8125 C0.83038672 18.41160223 -0.66300293 19.85414577 -5.4375 20.375 C-9.20656993 19.9782558 -11.02618388 19.29408672 -14 17 C-16.48533404 13.27199894 -16.4014703 10.31144196 -16 6 C-15.12611859 2.7666388 -14.16731533 2.11552725 -11.375 0.1875 C-6.87138973 -1.39710361 -4.64490667 -1.12376774 0 0 Z " fill="#000000" transform="translate(299,338)"/>
<path d="M0 0 C3.60185638 1.78935906 5.65271868 4.06029761 7.0625 7.875 C6.98041379 11.97931067 6.07239574 14.4568718 4 18 C0.59254913 20.47814609 -1.35056907 21 -5.5625 21 C-9.82964117 19.75864984 -11.47631975 18.67080764 -14 15 C-14.96393453 10.33252754 -14.65953759 7.05526014 -12.125 3 C-8.46981433 -0.44017475 -4.87233139 -0.79548268 0 0 Z " fill="#000000" transform="translate(157,137)"/>
</svg>
