<svg version="1.1"
  xmlns="http://www.w3.org/2000/svg"
  xmlns:xlink="http://www.w3.org/1999/xlink" width="300" height="300" viewBox="0,0,256,256">
  <g fill="#ffffff" fill-rule="nonzero" stroke="none" stroke-width="1" stroke-linecap="butt" stroke-linejoin="miter" stroke-miterlimit="10" stroke-dasharray="" stroke-dashoffset="0" font-family="none" font-weight="none" font-size="none" text-anchor="none" style="mix-blend-mode: normal">
    <g transform="scale(5.12,5.12)">
      <path d="M21.42969,2l-0.8457,4.24023c-2.02731,0.47555 -3.95461,1.27414 -5.72461,2.37109l-3.59961,-2.39844l-5.04688,5.04688l2.39844,3.59961c-1.09703,1.77085 -1.8954,3.69849 -2.37109,5.72656l-4.24023,0.84375v7.14062l4.24023,0.8457c0.47574,2.02741 1.2744,3.95429 2.37109,5.72461l-2.39844,3.59961l5.04688,5.04688l3.59961,-2.39844c1.77085,1.09703 3.69849,1.8954 5.72656,2.37109l0.84375,4.24023h7.14062l0.8457,-4.24023c2.02741,-0.47574 3.95429,-1.2744 5.72461,-2.37109l3.59961,2.39844l5.04688,-5.04687l-2.39844,-3.5957c1.097,-1.77084 1.89542,-3.69851 2.37109,-5.72656l4.24023,-0.84766v-0.82031v-6.32031l-4.24023,-0.8457c-0.47583,-2.02711 -1.27448,-3.95455 -2.37109,-5.72461l2.39844,-3.59961l-5.04687,-5.04688l-3.5957,2.39648c-1.77059,-1.09712 -3.69859,-1.8938 -5.72656,-2.36914l-0.84766,-4.24023zM23.07031,4h3.85938l0.77539,3.87109l0.65625,0.12891c2.24751,0.44052 4.38575,1.32477 6.28711,2.60156l0.55469,0.37305l3.28125,-2.1875l2.72852,2.72852l-2.1875,3.28711l0.37305,0.55469c1.27636,1.90139 2.16048,4.03797 2.60156,6.28516l0.12891,0.6582l3.87109,0.76953v3.85938l-3.87109,0.77539l-0.12891,0.65625c-0.44096,2.24751 -1.32508,4.38544 -2.60156,6.28711l-0.37305,0.55469l2.1875,3.28125l-2.72852,2.72852l-3.28516,-2.1875l-0.55469,0.37305c-1.90167,1.27648 -4.0396,2.1606 -6.28711,2.60156l-0.6582,0.12891l-0.76953,3.87109h-3.85938l-0.76953,-3.87109l-0.6582,-0.12891c-2.24751,-0.44096 -4.38349,-1.32508 -6.28516,-2.60156l-0.55469,-0.37305l-3.28711,2.1875l-2.72852,-2.72852l2.1875,-3.28516l-0.37305,-0.55469c-1.27648,-1.90167 -2.1606,-4.0396 -2.60156,-6.28711l-0.12891,-0.6582l-3.87109,-0.76953v-3.85938l3.87109,-0.76953l0.12891,-0.6582c0.44096,-2.24751 1.32508,-4.38349 2.60156,-6.28516l0.37305,-0.55469l-2.1875,-3.28711l2.72852,-2.72852l3.28711,2.1875l0.55469,-0.37305c1.90108,-1.27668 4.03797,-2.16092 6.28516,-2.60156l0.6582,-0.12891zM25,10.25c-8.13436,0 -14.75,6.61565 -14.75,14.75c0,8.13435 6.61564,14.75 14.75,14.75c8.13436,0 14.75,-6.61565 14.75,-14.75c0,-8.13435 -6.61564,-14.75 -14.75,-14.75zM25,12.25c7.05348,0 12.75,5.69652 12.75,12.75c0,7.05348 -5.69652,12.75 -12.75,12.75c-7.05348,0 -12.75,-5.69652 -12.75,-12.75c0,-7.05348 5.69652,-12.75 12.75,-12.75zM23.92578,15.19727c-0.08409,0.00211 -0.16375,0.03819 -0.22079,0.10001c-0.05704,0.06183 -0.0866,0.14412 -0.08195,0.22811v12.34375c-0.00508,0.08883 0.02814,0.17558 0.09124,0.2383c0.0631,0.06273 0.15004,0.09542 0.23884,0.08982h2.09961c0.08856,0.00535 0.17516,-0.0275 0.23789,-0.09023c0.06273,-0.06273 0.09558,-0.14934 0.09023,-0.23789v-12.33984c0.00593,-0.08888 -0.02666,-0.17602 -0.08946,-0.2392c-0.0628,-0.06318 -0.14975,-0.09628 -0.23867,-0.09088l-2.09961,-0.00195c-0.00911,-0.0004 -0.01823,-0.0004 -0.02734,0zM23.85547,31.7207c-0.08436,0.00236 -0.16416,0.0388 -0.2212,0.10099c-0.05704,0.06219 -0.08646,0.14484 -0.08153,0.22909v2.39844c-0.00533,0.08907 0.02773,0.17616 0.09083,0.23925c0.06309,0.06309 0.15018,0.09616 0.23925,0.09083h2.23633c0.08892,0.00541 0.17586,-0.0277 0.23867,-0.09088c0.0628,-0.06318 0.09539,-0.15032 0.08946,-0.2392v-2.39844c0.00593,-0.08888 -0.02666,-0.17602 -0.08946,-0.2392c-0.0628,-0.06318 -0.14975,-0.09628 -0.23867,-0.09088h-2.23633c-0.00911,-0.0004 -0.01823,-0.0004 -0.02734,0z"></path>
    </g>
  </g>
</svg>